<?xml version="1.0" encoding="utf-8"?>
<!-- Generator: Adobe Illustrator 20.0.0, SVG Export Plug-In . SVG Version: 6.00 Build 0)  -->
<svg version="1.1" id="Layer_2" xmlns="http://www.w3.org/2000/svg" xmlns:xlink="http://www.w3.org/1999/xlink" x="0px" y="0px"
	 viewBox="0 0 137.7 66.4" style="enable-background:new 0 0 137.7 66.4;" xml:space="preserve">
<style type="text/css">
	.st0{fill:none;stroke:#FBB040;stroke-width:3;stroke-miterlimit:10;}
</style>
<polyline class="st0" points="76.5,33.2 76.5,1.5 16.2,1.5 16.2,33.2 "/>
<polyline class="st0" points="16.2,56.6 16.2,64.9 76.5,64.9 76.5,56.6 "/>
<g>
	<path d="M0,36.2h3.1l6,8.2l5.7-8.2h2.9v17.5h-3V41l-5.5,7.8H8.6l-5.6-7.7v12.6H0V36.2z"/>
	<path d="M42.2,46.4c0,5.3-3.3,7.5-6.9,7.5c-4.3,0-7.4-2.6-7.4-7.7V36.2h3.1v9.4c0,3.3,1.3,5.5,4.4,5.5c2.6,0,3.9-1.9,3.9-5.3v-9.6
		h3V46.4z"/>
	<path d="M53.1,40.7c0-2.6,2-4.8,5.4-4.8c2.1,0,3.9,0.7,5,1.9l-1.6,2.3c-0.8-0.8-1.7-1.3-3.1-1.3c-1.5,0-2.5,0.8-2.5,1.9
		c0,3.6,7.9,2.5,7.9,8.3c0,2.9-2.6,4.9-5.8,4.9c-2.2,0-4.9-1-5.7-2.8l1.7-2.1c1,1.3,2.7,2,4,2c1.4,0,2.5-0.7,2.5-2
		C61.1,45.6,53.1,46.4,53.1,40.7z"/>
	<path d="M75,36.2h10.1V39h-7v4.3h6.3v2.9h-6.3v4.5h7.3v2.9H75V36.2z"/>
	<path d="M109.9,46.4c0,5.3-3.3,7.5-6.9,7.5c-4.3,0-7.4-2.6-7.4-7.7V36.2h3.1v9.4c0,3.3,1.3,5.5,4.4,5.5c2.6,0,3.9-1.9,3.9-5.3v-9.6
		h3V46.4z"/>
	<path d="M120,36.2h3.1l6,8.2l5.7-8.2h2.9v17.5h-3V41l-5.5,7.8h-0.5l-5.6-7.7v12.6H120V36.2z"/>
</g>
<g>
	<path d="M27.8,30.1V12.6c1,0,3.7,0,5,0c5.1,0,6.8,2.7,6.8,5.6c0,3-2.2,5.7-6.4,5.7c-0.5,0-1.5,0-2.3-0.1v6.3H27.8z M30.9,15.5v5.4
		c0.7,0.1,1.5,0.1,2.2,0.1c1.8,0,3.2-0.9,3.2-2.8c0-1.8-1.1-2.7-3.2-2.7C32.4,15.4,31.7,15.5,30.9,15.5z"/>
	<path d="M53,12.6h3.1v14.6H64v2.9H53V12.6z"/>
</g>
</svg>
